<?xml version="1.0" encoding="utf-8"?>
<!-- Generator: Adobe Illustrator 18.1.1, SVG Export Plug-In . SVG Version: 6.00 Build 0)  -->
<svg version="1.1" id="Layer_1" xmlns="http://www.w3.org/2000/svg" xmlns:xlink="http://www.w3.org/1999/xlink" x="0px" y="0px"
	 viewBox="0 0 150 150" enable-background="new 0 0 150 150" xml:space="preserve">
<g>
	<polygon fill="#041F2C" points="59.8,52.6 55.6,73.7 64.9,73.6 60.6,52.6 	"/>
	<path fill="#041F2C" d="M123.5,82.6l10.2-8.1l-10.4-7.9l7.2-10.8l-12.3-4.3l3.5-12.5l-13.1-0.4l-0.6-12.9l-12.5,3.6L91,17.3
		l-10.8,7.3l-8.1-10.1l-8,10.2l-10.9-7.1l-4.4,12.2l-12.6-3.5l-0.4,12.9l-13.1,0.6l3.7,12.4l-12.2,4.5l7.4,10.7l-10.2,8.1l10.4,7.9
		l-7.2,10.8l12.3,4.3L23.3,111l13.1,0.4l0.6,12.9l12.5-3.6l4.6,12.1l10.8-7.3l8.1,10.1l8-10.2l10.9,7.1l4.4-12.2l12.6,3.5l0.4-12.9
		l13.1-0.6l-3.7-12.4l12.2-4.5L123.5,82.6z M80.6,98.1H63.1v-6.4h5.3l-2.4-11.5l-11.6-0.1l-2.5,11.6h5.9l-0.1,6.4l-18.3,0v-6.4h5.9
		l7.8-39h-5.6v-5.8h24.8v5.8h-5.4l7.7,39h6.1V98.1z M105.7,98.1H86v-6.4h6.4l-7.9-38.4l-7.1,34.6l-2.8-15.5l5.3-25.5l17.9,0
		l-0.1,5.7h-6.2l8,39.1h6.2V98.1z"/>
</g>
</svg>
